<svg version="1.1" xmlns="http://www.w3.org/2000/svg" viewBox="-215.0399963378906 -1756.5440093994143 4928.2560363769535 2952.959967041016"><desc>Created with Snap</desc><defs></defs><g><g transform="matrix(8.0088,0,0,8.0088,1899.272,-1617.5281)">
<g>
	<path fill-rule="evenodd" clip-rule="evenodd" d="M167,21l52,30v60l-43,25v21h22l24-43h61l30,53l-30,52h-61l-24-43h-22v22l43,24v61
		l-52,30l-53-30v-61l43-24v-22h-21l-25,43H51l-30-52l30-53h60l25,43h21v-21l-43-25V51L167,21z M219,157h14v19h-14l14,25h39l19-34
		l-19-34h-39L219,157z M115,176h-15v-19h15l-14-24H61l-19,34l19,34h40L115,176z M157,115v-15h19v15l25-14V61l-34-19l-34,19v40
		L157,115z M176,219v14h-19v-14l-24,14v39l34,19l34-19v-39L176,219z" fill="#adefd1" style=""></path>
</g>
<desc>Created with Snap</desc><defs></defs></g><g><g transform="matrix(1.024,0,0,-1.024,0,0)"><path d="M129 -234Q111 -234 100 -224Q90 -213 90 -195L90 277Q91 355 127 417Q164 480 226 516Q289 552 367 552Q447 552 510 515Q573 479 609 416Q646 353 646 273Q646 194 610 131Q575 68 514 31Q453 -5 376 -5Q309 -5 254 23Q200 52 167 99L167 -195Q167 -213 156 -224Q146 -234 129 -234ZM367 65Q425 65 471 92Q517 119 543 166Q570 214 570 273Q570 333 543 380Q517 427 471 454Q425 482 367 482Q310 482 264 454Q218 427 192 380Q166 333 166 273Q166 214 192 166Q218 119 264 92Q310 65 367 65ZM865 0Q850 0 839 10Q828 21 828 39L828 546Q828 616 852 669Q876 722 923 751Q970 781 1038 781Q1055 781 1066 771Q1077 761 1077 746Q1077 731 1066 721Q1055 711 1038 711Q993 711 963 690Q934 670 919 633Q905 597 905 550L905 39Q905 21 894 10Q884 0 865 0ZM1025 460L764 460Q748 460 738 469Q729 479 729 493Q729 508 738 517Q748 527 764 527L1025 527Q1041 527 1050 517Q1060 508 1060 493Q1060 479 1050 469Q1041 460 1025 460ZM1202 -234Q1184 -234 1173 -224Q1163 -213 1163 -195L1163 277Q1164 355 1200 417Q1237 480 1299 516Q1362 552 1440 552Q1520 552 1583 515Q1646 479 1682 416Q1719 353 1719 273Q1719 194 1683 131Q1648 68 1587 31Q1526 -5 1449 -5Q1382 -5 1327 23Q1273 52 1240 99L1240 -195Q1240 -213 1229 -224Q1219 -234 1202 -234ZM1440 65Q1498 65 1544 92Q1590 119 1616 166Q1643 214 1643 273Q1643 333 1616 380Q1590 427 1544 454Q1498 482 1440 482Q1383 482 1337 454Q1291 427 1265 380Q1239 333 1239 273Q1239 214 1265 166Q1291 119 1337 92Q1383 65 1440 65Z" fill="#00203f" style=""></path></g></g></g></svg>